<svg
  xmlns="http://www.w3.org/2000/svg"
  width="32"
  height="32"
  viewBox="0 0 32 32"
  fill="none"
>
  <path
    d="M31.1404 13.9184L31.1382 13.9163L18.0834 0.863312C17.5269 0.306562 16.7871 0 16.0002 0C15.2133 0 14.4734 0.306375 13.9168 0.863063L0.868732 13.9094C0.864356 13.9138 0.859981 13.9184 0.855605 13.9228C-0.287136 15.0719 -0.285136 16.9364 0.861231 18.0827C1.38491 18.6066 2.07667 18.9101 2.81624 18.9418C2.84625 18.9447 2.87656 18.9462 2.90706 18.9462H3.42737V28.5524C3.42737 30.4534 4.97415 32 6.87572 32H11.9831C12.5008 32 12.9207 31.5803 12.9207 31.0625V23.5312C12.9207 22.6638 13.6264 21.9583 14.4939 21.9583H17.5064C18.374 21.9583 19.0796 22.6639 19.0796 23.5312V31.0625C19.0796 31.5803 19.4993 32 20.0172 32H25.1246C27.0262 32 28.573 30.4534 28.573 28.5525V18.9463H29.0555C29.8422 18.9463 30.582 18.6399 31.1389 18.0833C32.2866 16.9351 32.287 15.0674 31.1404 13.9184Z"
    fill="url(#paint0_linear_138_1281)"
  />
  <defs>
    <linearGradient
      id="paint0_linear_138_1281"
      x1="1.65866e-06"
      y1="17.5238"
      x2="36.5714"
      y2="17.5238"
      gradientUnits="userSpaceOnUse"
    >
      <stop stop-color="#FF9D00" />
      <stop offset="1" stop-color="#FF1809" />
    </linearGradient>
  </defs>
</svg>
