<svg width="14" height="63" viewBox="0 0 14 63" fill="none" xmlns="http://www.w3.org/2000/svg">
<path id="Vector 73" d="M2.6761 8.1C1.30296 5.06708 0 0 0 0V63C0 63 1.29766 58.1965 2.6761 55.35C4.54279 51.4952 6.58272 49.9338 8.92034 46.35C10.1688 44.436 11.1448 43.5047 12.0425 41.4C12.8274 39.5595 13.5562 38.435 13.8265 36.45C14.1111 34.3608 13.9978 33.1517 13.8265 31.05C13.653 28.9193 13.1289 27.6879 12.4885 25.65C11.7822 23.4025 10.9426 22.3137 9.81238 20.25C8.52649 17.9021 7.60172 16.7065 6.24424 14.4C4.81027 11.9635 3.84305 10.6775 2.6761 8.1Z" fill="url(#paint0_linear_138_1275)"/>
<defs>
<linearGradient id="paint0_linear_138_1275" x1="7.25663e-07" y1="34.5" x2="16" y2="34.5" gradientUnits="userSpaceOnUse">
<stop stop-color="#FF9D00"/>
<stop offset="1" stop-color="#FF1809"/>
</linearGradient>
</defs>
</svg>